<svg viewBox="0 0 600 500" xmlns="http://www.w3.org/2000/svg" font-family="sans-serif">
<rect x="0" y="0" width="600" height="500" fill="white"/>
<line x1="60.0" y1="30" x2="60.0" y2="450" stroke="#eee" stroke-width="1"/>
<line x1="162.0" y1="30" x2="162.0" y2="450" stroke="#eee" stroke-width="1"/>
<line x1="264.0" y1="30" x2="264.0" y2="450" stroke="#eee" stroke-width="1"/>
<line x1="366.0" y1="30" x2="366.0" y2="450" stroke="#eee" stroke-width="1"/>
<line x1="468.0" y1="30" x2="468.0" y2="450" stroke="#eee" stroke-width="1"/>
<line x1="570.0" y1="30" x2="570.0" y2="450" stroke="#eee" stroke-width="1"/>
<line x1="60" y1="450.0" x2="570" y2="450.0" stroke="#eee" stroke-width="1"/>
<line x1="60" y1="380.0" x2="570" y2="380.0" stroke="#eee" stroke-width="1"/>
<line x1="60" y1="310.0" x2="570" y2="310.0" stroke="#eee" stroke-width="1"/>
<line x1="60" y1="240.0" x2="570" y2="240.0" stroke="#eee" stroke-width="1"/>
<line x1="60" y1="170.0" x2="570" y2="170.0" stroke="#eee" stroke-width="1"/>
<line x1="60" y1="100.0" x2="570" y2="100.0" stroke="#eee" stroke-width="1"/>
<line x1="60" y1="30.0" x2="570" y2="30.0" stroke="#eee" stroke-width="1"/>
<line x1="60" y1="380.0" x2="570" y2="380.0" stroke="#333" stroke-width="1.5"/>
<line x1="264.0" y1="30" x2="264.0" y2="450" stroke="#333" stroke-width="1.5"/>
<text x="60.0" y="396.0" font-size="11" text-anchor="middle" fill="#555">-2</text>
<text x="162.0" y="396.0" font-size="11" text-anchor="middle" fill="#555">-1</text>
<text x="366.0" y="396.0" font-size="11" text-anchor="middle" fill="#555">1</text>
<text x="468.0" y="396.0" font-size="11" text-anchor="middle" fill="#555">2</text>
<text x="570.0" y="396.0" font-size="11" text-anchor="middle" fill="#555">3</text>
<text x="258.0" y="454.0" font-size="11" text-anchor="end" fill="#555">-1</text>
<text x="258.0" y="314.0" font-size="11" text-anchor="end" fill="#555">1</text>
<text x="258.0" y="244.0" font-size="11" text-anchor="end" fill="#555">2</text>
<text x="258.0" y="174.0" font-size="11" text-anchor="end" fill="#555">3</text>
<text x="258.0" y="104.0" font-size="11" text-anchor="end" fill="#555">4</text>
<text x="258.0" y="34.0" font-size="11" text-anchor="end" fill="#555">5</text>
<text x="578" y="384.0" font-size="13" fill="#333">x</text>
<text x="258.0" y="20.0" font-size="13" fill="#333" text-anchor="end">y</text>
<path d="M 162.00 310.00 L 165.09 307.88 L 168.18 305.76 L 171.27 303.64 L 174.36 301.52 L 177.45 299.39 L 180.55 297.27 L 183.64 295.15 L 186.73 293.03 L 189.82 290.91 L 192.91 288.79 L 196.00 286.67 L 199.09 284.55 L 202.18 282.42 L 205.27 280.30 L 208.36 278.18 L 211.45 276.06 L 214.55 273.94 L 217.64 271.82 L 220.73 269.70 L 223.82 267.58 L 226.91 265.45 L 230.00 263.33 L 233.09 261.21 L 236.18 259.09 L 239.27 256.97 L 242.36 254.85 L 245.45 252.73 L 248.55 250.61 L 251.64 248.48 L 254.73 246.36 L 257.82 244.24 L 260.91 242.12 L 264.00 240.00 L 267.09 237.88 L 270.18 235.76 L 273.27 233.64 L 276.36 231.52 L 279.45 229.39 L 282.55 227.27 L 285.64 225.15 L 288.73 223.03 L 291.82 220.91 L 294.91 218.79 L 298.00 216.67 L 301.09 214.55 L 304.18 212.42 L 307.27 210.30 L 310.36 208.18 L 313.45 206.06 L 316.55 203.94 L 319.64 201.82 L 322.73 199.70 L 325.82 197.58 L 328.91 195.45 L 332.00 193.33 L 335.09 191.21 L 338.18 189.09 L 341.27 186.97 L 344.36 184.85 L 347.45 182.73 L 350.55 180.61 L 353.64 178.48 L 356.73 176.36 L 359.82 174.24 L 362.91 172.12 L 366.00 170.00 L 369.09 167.88 L 372.18 165.76 L 375.27 163.64 L 378.36 161.52 L 381.45 159.39 L 384.55 157.27 L 387.64 155.15 L 390.73 153.03 L 393.82 150.91 L 396.91 148.79 L 400.00 146.67 L 403.09 144.55 L 406.18 142.42 L 409.27 140.30 L 412.36 138.18 L 415.45 136.06 L 418.55 133.94 L 421.64 131.82 L 424.73 129.70 L 427.82 127.58 L 430.91 125.45 L 434.00 123.33 L 437.09 121.21 L 440.18 119.09 L 443.27 116.97 L 446.36 114.85 L 449.45 112.73 L 452.55 110.61 L 455.64 108.48 L 458.73 106.36 L 461.82 104.24 L 464.91 102.12 L 468.00 100.00 L 468.00 100.00 L 464.91 108.42 L 461.82 116.71 L 458.73 124.88 L 455.64 132.91 L 452.55 140.82 L 449.45 148.60 L 446.36 156.24 L 443.27 163.76 L 440.18 171.16 L 437.09 178.42 L 434.00 185.56 L 430.91 192.56 L 427.82 199.44 L 424.73 206.19 L 421.64 212.81 L 418.55 219.30 L 415.45 225.67 L 412.36 231.90 L 409.27 238.01 L 406.18 243.99 L 403.09 249.83 L 400.00 255.56 L 396.91 261.15 L 393.82 266.61 L 390.73 271.95 L 387.64 277.15 L 384.55 282.23 L 381.45 287.18 L 378.36 292.00 L 375.27 296.69 L 372.18 301.26 L 369.09 305.69 L 366.00 310.00 L 362.91 314.18 L 359.82 318.23 L 356.73 322.15 L 353.64 325.94 L 350.55 329.61 L 347.45 333.14 L 344.36 336.55 L 341.27 339.83 L 338.18 342.98 L 335.09 346.00 L 332.00 348.89 L 328.91 351.65 L 325.82 354.29 L 322.73 356.80 L 319.64 359.17 L 316.55 361.42 L 313.45 363.54 L 310.36 365.54 L 307.27 367.40 L 304.18 369.14 L 301.09 370.74 L 298.00 372.22 L 294.91 373.57 L 291.82 374.79 L 288.73 375.89 L 285.64 376.85 L 282.55 377.69 L 279.45 378.39 L 276.36 378.97 L 273.27 379.42 L 270.18 379.74 L 267.09 379.94 L 264.00 380.00 L 260.91 379.94 L 257.82 379.74 L 254.73 379.42 L 251.64 378.97 L 248.55 378.39 L 245.45 377.69 L 242.36 376.85 L 239.27 375.89 L 236.18 374.79 L 233.09 373.57 L 230.00 372.22 L 226.91 370.74 L 223.82 369.14 L 220.73 367.40 L 217.64 365.54 L 214.55 363.54 L 211.45 361.42 L 208.36 359.17 L 205.27 356.80 L 202.18 354.29 L 199.09 351.65 L 196.00 348.89 L 192.91 346.00 L 189.82 342.98 L 186.73 339.83 L 183.64 336.55 L 180.55 333.14 L 177.45 329.61 L 174.36 325.94 L 171.27 322.15 L 168.18 318.23 L 165.09 314.18 L 162.00 310.00 Z" fill="#a7c7f0" fill-opacity="0.55" id="region-R"/>
<path d="M 60.00 380.00 L 62.56 378.24 L 65.13 376.48 L 67.69 374.72 L 70.25 372.96 L 72.81 371.21 L 75.38 369.45 L 77.94 367.69 L 80.50 365.93 L 83.07 364.17 L 85.63 362.41 L 88.19 360.65 L 90.75 358.89 L 93.32 357.14 L 95.88 355.38 L 98.44 353.62 L 101.01 351.86 L 103.57 350.10 L 106.13 348.34 L 108.69 346.58 L 111.26 344.82 L 113.82 343.07 L 116.38 341.31 L 118.94 339.55 L 121.51 337.79 L 124.07 336.03 L 126.63 334.27 L 129.20 332.51 L 131.76 330.75 L 134.32 328.99 L 136.88 327.24 L 139.45 325.48 L 142.01 323.72 L 144.57 321.96 L 147.14 320.20 L 149.70 318.44 L 152.26 316.68 L 154.82 314.92 L 157.39 313.17 L 159.95 311.41 L 162.51 309.65 L 165.08 307.89 L 167.64 306.13 L 170.20 304.37 L 172.76 302.61 L 175.33 300.85 L 177.89 299.10 L 180.45 297.34 L 183.02 295.58 L 185.58 293.82 L 188.14 292.06 L 190.70 290.30 L 193.27 288.54 L 195.83 286.78 L 198.39 285.03 L 200.95 283.27 L 203.52 281.51 L 206.08 279.75 L 208.64 277.99 L 211.21 276.23 L 213.77 274.47 L 216.33 272.71 L 218.89 270.95 L 221.46 269.20 L 224.02 267.44 L 226.58 265.68 L 229.15 263.92 L 231.71 262.16 L 234.27 260.40 L 236.83 258.64 L 239.40 256.88 L 241.96 255.13 L 244.52 253.37 L 247.09 251.61 L 249.65 249.85 L 252.21 248.09 L 254.77 246.33 L 257.34 244.57 L 259.90 242.81 L 262.46 241.06 L 265.03 239.30 L 267.59 237.54 L 270.15 235.78 L 272.71 234.02 L 275.28 232.26 L 277.84 230.50 L 280.40 228.74 L 282.96 226.98 L 285.53 225.23 L 288.09 223.47 L 290.65 221.71 L 293.22 219.95 L 295.78 218.19 L 298.34 216.43 L 300.90 214.67 L 303.47 212.91 L 306.03 211.16 L 308.59 209.40 L 311.16 207.64 L 313.72 205.88 L 316.28 204.12 L 318.84 202.36 L 321.41 200.60 L 323.97 198.84 L 326.53 197.09 L 329.10 195.33 L 331.66 193.57 L 334.22 191.81 L 336.78 190.05 L 339.35 188.29 L 341.91 186.53 L 344.47 184.77 L 347.04 183.02 L 349.60 181.26 L 352.16 179.50 L 354.72 177.74 L 357.29 175.98 L 359.85 174.22 L 362.41 172.46 L 364.97 170.70 L 367.54 168.94 L 370.10 167.19 L 372.66 165.43 L 375.23 163.67 L 377.79 161.91 L 380.35 160.15 L 382.91 158.39 L 385.48 156.63 L 388.04 154.87 L 390.60 153.12 L 393.17 151.36 L 395.73 149.60 L 398.29 147.84 L 400.85 146.08 L 403.42 144.32 L 405.98 142.56 L 408.54 140.80 L 411.11 139.05 L 413.67 137.29 L 416.23 135.53 L 418.79 133.77 L 421.36 132.01 L 423.92 130.25 L 426.48 128.49 L 429.05 126.73 L 431.61 124.97 L 434.17 123.22 L 436.73 121.46 L 439.30 119.70 L 441.86 117.94 L 444.42 116.18 L 446.98 114.42 L 449.55 112.66 L 452.11 110.90 L 454.67 109.15 L 457.24 107.39 L 459.80 105.63 L 462.36 103.87 L 464.92 102.11 L 467.49 100.35 L 470.05 98.59 L 472.61 96.83 L 475.18 95.08 L 477.74 93.32 L 480.30 91.56 L 482.86 89.80 L 485.43 88.04 L 487.99 86.28 L 490.55 84.52 L 493.12 82.76 L 495.68 81.01 L 498.24 79.25 L 500.80 77.49 L 503.37 75.73 L 505.93 73.97 L 508.49 72.21 L 511.06 70.45 L 513.62 68.69 L 516.18 66.93 L 518.74 65.18 L 521.31 63.42 L 523.87 61.66 L 526.43 59.90 L 528.99 58.14 L 531.56 56.38 L 534.12 54.62 L 536.68 52.86 L 539.25 51.11 L 541.81 49.35 L 544.37 47.59 L 546.93 45.83 L 549.50 44.07 L 552.06 42.31 L 554.62 40.55 L 557.19 38.79 L 559.75 37.04 L 562.31 35.28 L 564.87 33.52 L 567.44 31.76 L 570.00 30.00" fill="none" stroke="#c0392b" stroke-width="2.5" id="line-f"/>
<path d="M 60.00 100.00 L 62.56 106.99 L 65.13 113.89 L 67.69 120.71 L 70.25 127.43 L 72.81 134.07 L 75.38 140.62 L 77.94 147.08 L 80.50 153.45 L 83.07 159.74 L 85.63 165.93 L 88.19 172.04 L 90.75 178.06 L 93.32 183.99 L 95.88 189.83 L 98.44 195.58 L 101.01 201.25 L 103.57 206.83 L 106.13 212.32 L 108.69 217.72 L 111.26 223.03 L 113.82 228.25 L 116.38 233.39 L 118.94 238.43 L 121.51 243.39 L 124.07 248.26 L 126.63 253.04 L 129.20 257.73 L 131.76 262.34 L 134.32 266.86 L 136.88 271.28 L 139.45 275.62 L 142.01 279.87 L 144.57 284.04 L 147.14 288.11 L 149.70 292.10 L 152.26 296.00 L 154.82 299.80 L 157.39 303.53 L 159.95 307.16 L 162.51 310.70 L 165.08 314.16 L 167.64 317.52 L 170.20 320.80 L 172.76 323.99 L 175.33 327.10 L 177.89 330.11 L 180.45 333.04 L 183.02 335.87 L 185.58 338.62 L 188.14 341.28 L 190.70 343.85 L 193.27 346.34 L 195.83 348.73 L 198.39 351.04 L 200.95 353.26 L 203.52 355.39 L 206.08 357.43 L 208.64 359.38 L 211.21 361.25 L 213.77 363.02 L 216.33 364.71 L 218.89 366.31 L 221.46 367.82 L 224.02 369.25 L 226.58 370.58 L 229.15 371.83 L 231.71 372.98 L 234.27 374.05 L 236.83 375.03 L 239.40 375.93 L 241.96 376.73 L 244.52 377.45 L 247.09 378.08 L 249.65 378.61 L 252.21 379.06 L 254.77 379.43 L 257.34 379.70 L 259.90 379.89 L 262.46 379.98 L 265.03 379.99 L 267.59 379.91 L 270.15 379.75 L 272.71 379.49 L 275.28 379.14 L 277.84 378.71 L 280.40 378.19 L 282.96 377.58 L 285.53 376.88 L 288.09 376.10 L 290.65 375.22 L 293.22 374.26 L 295.78 373.21 L 298.34 372.07 L 300.90 370.84 L 303.47 369.52 L 306.03 368.11 L 308.59 366.62 L 311.16 365.04 L 313.72 363.37 L 316.28 361.61 L 318.84 359.76 L 321.41 357.83 L 323.97 355.80 L 326.53 353.69 L 329.10 351.49 L 331.66 349.20 L 334.22 346.82 L 336.78 344.36 L 339.35 341.80 L 341.91 339.16 L 344.47 336.43 L 347.04 333.61 L 349.60 330.70 L 352.16 327.71 L 354.72 324.62 L 357.29 321.45 L 359.85 318.19 L 362.41 314.84 L 364.97 311.40 L 367.54 307.87 L 370.10 304.26 L 372.66 300.56 L 375.23 296.76 L 377.79 292.88 L 380.35 288.92 L 382.91 284.86 L 385.48 280.71 L 388.04 276.48 L 390.60 272.16 L 393.17 267.75 L 395.73 263.25 L 398.29 258.66 L 400.85 253.99 L 403.42 249.22 L 405.98 244.37 L 408.54 239.43 L 411.11 234.40 L 413.67 229.28 L 416.23 224.08 L 418.79 218.78 L 421.36 213.40 L 423.92 207.93 L 426.48 202.37 L 429.05 196.72 L 431.61 190.99 L 434.17 185.16 L 436.73 179.25 L 439.30 173.25 L 441.86 167.16 L 444.42 160.98 L 446.98 154.72 L 449.55 148.36 L 452.11 141.92 L 454.67 135.39 L 457.24 128.77 L 459.80 122.06 L 462.36 115.26 L 464.92 108.38 L 467.49 101.41 L 470.05 94.34 L 472.61 87.19 L 475.18 79.96 L 477.74 72.63 L 480.30 65.21 L 482.86 57.71 L 485.43 50.12 L 487.99 42.44 L 490.55 34.67 L 493.12 26.81 L 495.68 18.87 L 498.24 10.83 L 500.80 2.71 L 503.37 -5.50 L 505.93 -13.80 L 508.49 -22.19 L 511.06 -30.66 L 513.62 -39.23 L 516.18 -47.88 L 518.74 -56.62 L 521.31 -65.45 L 523.87 -74.37 L 526.43 -83.37 L 528.99 -92.47 L 531.56 -101.65 L 534.12 -110.92 L 536.68 -120.28 L 539.25 -129.73 L 541.81 -139.27 L 544.37 -148.89 L 546.93 -158.60 L 549.50 -168.41 L 552.06 -178.30 L 554.62 -188.27 L 557.19 -198.34 L 559.75 -208.50 L 562.31 -218.74 L 564.87 -229.07 L 567.44 -239.49 L 570.00 -250.00" fill="none" stroke="#1a5fb4" stroke-width="2.5" id="curve-g"/>
<circle cx="162.0" cy="310.0" r="4.5" fill="#222" id="intersection--1-1"/>
<text x="170.0" y="302.0" font-size="11" fill="#222">(-1, 1)</text>
<circle cx="468.0" cy="100.0" r="4.5" fill="#222" id="intersection-2-4"/>
<text x="476.0" y="92.0" font-size="11" fill="#222">(2, 4)</text>
<text x="508.8" y="66.0" font-size="13" fill="#c0392b">f(x) = x + 2</text>
<text x="90.6" y="177.7" font-size="13" fill="#1a5fb4">g(x) = x^2</text>
<text x="315.0" y="226.0" font-size="13" fill="#0b3d91" font-style="italic">R</text>
</svg>