<svg xmlns="http://www.w3.org/2000/svg" width="760" height="460" viewBox="0 0 760 460" role="img">
  <title>Study time and quiz score scatterplot</title>
  <desc>Eighteen synthetic observations show a positive roughly linear pattern with one point near nine study hours and a score near sixty-one.</desc>
  <rect width="100%" height="100%" fill="white"/>
  <g stroke="currentColor" fill="none" stroke-width="2">
    <line x1="78" y1="38" x2="78" y2="392"/>
    <line x1="78" y1="392" x2="732" y2="392"/>
  <line x1="78.0" y1="392" x2="78.0" y2="399" /><text x="78.0" y="418" text-anchor="middle">0</text>
  <line x1="196.9" y1="392" x2="196.9" y2="399" /><text x="196.9" y="418" text-anchor="middle">2</text>
  <line x1="315.8" y1="392" x2="315.8" y2="399" /><text x="315.8" y="418" text-anchor="middle">4</text>
  <line x1="434.7" y1="392" x2="434.7" y2="399" /><text x="434.7" y="418" text-anchor="middle">6</text>
  <line x1="553.6" y1="392" x2="553.6" y2="399" /><text x="553.6" y="418" text-anchor="middle">8</text>
  <line x1="672.5" y1="392" x2="672.5" y2="399" /><text x="672.5" y="418" text-anchor="middle">10</text>
  <line x1="71" y1="392.0" x2="78" y2="392.0" /><text x="66" y="397.0" text-anchor="end">50</text>
  <line x1="71" y1="321.2" x2="78" y2="321.2" /><text x="66" y="326.2" text-anchor="end">60</text>
  <line x1="71" y1="250.4" x2="78" y2="250.4" /><text x="66" y="255.4" text-anchor="end">70</text>
  <line x1="71" y1="179.6" x2="78" y2="179.6" /><text x="66" y="184.6" text-anchor="end">80</text>
  <line x1="71" y1="108.8" x2="78" y2="108.8" /><text x="66" y="113.8" text-anchor="end">90</text>
  <line x1="71" y1="38.0" x2="78" y2="38.0" /><text x="66" y="43.0" text-anchor="end">100</text>
    <line x1="119.6" y1="349.8" x2="684.4" y2="67.0" stroke-width="2.5"/>
  </g>
  <g fill="currentColor">
  <circle cx="149.3" cy="335.4" r="5.5" />
  <circle cx="185.0" cy="314.1" r="5.5" />
  <circle cx="220.7" cy="300.0" r="5.5" />
  <circle cx="256.4" cy="278.7" r="5.5" />
  <circle cx="292.0" cy="264.6" r="5.5" />
  <circle cx="321.8" cy="250.4" r="5.5" />
  <circle cx="363.4" cy="229.2" r="5.5" />
  <circle cx="393.1" cy="215.0" r="5.5" />
  <circle cx="428.8" cy="193.8" r="5.5" />
  <circle cx="458.5" cy="179.6" r="5.5" />
  <circle cx="488.2" cy="172.5" r="5.5" />
  <circle cx="512.0" cy="151.3" r="5.5" />
  <circle cx="541.7" cy="137.1" r="5.5" />
  <circle cx="565.5" cy="123.0" r="5.5" />
  <circle cx="595.3" cy="108.8" r="5.5" />
  <circle cx="630.9" cy="94.6" r="5.5" />
  <circle cx="660.7" cy="80.5" r="5.5" />
  <circle cx="613.1" cy="314.1" r="5.5" />
  </g>
  <g fill="currentColor" font-family="sans-serif" font-size="16">
    <text x="405.0" y="440" text-anchor="middle">Study hours</text>
    <text transform="translate(22 215.0) rotate(-90)" text-anchor="middle">Quiz score</text>
  </g>
</svg>
